<mxfile host="app.diagrams.net" modified="2021-04-12T07:08:21.896Z" agent="5.0 (Windows NT 6.1; Win64; x64) AppleWebKit/537.36 (KHTML, like Gecko) Chrome/89.0.4389.72 Safari/537.36" etag="6bAOaOQXIjCZA-iXvBJ4" version="14.2.9" type="github">
  <diagram id="8iI6Ntc4uN_3i_pKGd34" name="第 1 页">
    <mxGraphModel dx="860" dy="474" grid="0" gridSize="10" guides="1" tooltips="1" connect="1" arrows="1" fold="1" page="0" pageScale="1" pageWidth="827" pageHeight="1169" math="0" shadow="0">
      <root>
        <mxCell id="0" />
        <mxCell id="1" parent="0" />
        <mxCell id="43CxiuhSSZWE3SRNgcOl-67" value="" style="rounded=1;whiteSpace=wrap;html=1;" vertex="1" parent="1">
          <mxGeometry x="60" y="10" width="590" height="380" as="geometry" />
        </mxCell>
        <mxCell id="43CxiuhSSZWE3SRNgcOl-65" value="" style="rounded=1;whiteSpace=wrap;html=1;" vertex="1" parent="1">
          <mxGeometry x="200" y="280" width="430" height="100" as="geometry" />
        </mxCell>
        <mxCell id="43CxiuhSSZWE3SRNgcOl-64" value="" style="rounded=1;whiteSpace=wrap;html=1;" vertex="1" parent="1">
          <mxGeometry x="200" y="210" width="430" height="50" as="geometry" />
        </mxCell>
        <mxCell id="43CxiuhSSZWE3SRNgcOl-63" value="" style="rounded=1;whiteSpace=wrap;html=1;" vertex="1" parent="1">
          <mxGeometry x="200" y="90" width="430" height="50" as="geometry" />
        </mxCell>
        <mxCell id="43CxiuhSSZWE3SRNgcOl-50" value="" style="rounded=1;whiteSpace=wrap;html=1;" vertex="1" parent="1">
          <mxGeometry x="200" y="150" width="270" height="50" as="geometry" />
        </mxCell>
        <mxCell id="43CxiuhSSZWE3SRNgcOl-49" value="" style="rounded=1;whiteSpace=wrap;html=1;" vertex="1" parent="1">
          <mxGeometry x="200" y="30" width="430" height="50" as="geometry" />
        </mxCell>
        <mxCell id="43CxiuhSSZWE3SRNgcOl-1" value="产品模型定义" style="rounded=0;whiteSpace=wrap;html=1;" vertex="1" parent="1">
          <mxGeometry x="80" y="40" width="100" height="30" as="geometry" />
        </mxCell>
        <mxCell id="43CxiuhSSZWE3SRNgcOl-2" value="WebHook处理" style="rounded=0;whiteSpace=wrap;html=1;" vertex="1" parent="1">
          <mxGeometry x="80" y="290" width="100" height="30" as="geometry" />
        </mxCell>
        <mxCell id="43CxiuhSSZWE3SRNgcOl-4" value="物模型处理" style="rounded=0;whiteSpace=wrap;html=1;" vertex="1" parent="1">
          <mxGeometry x="80" y="100" width="100" height="30" as="geometry" />
        </mxCell>
        <mxCell id="43CxiuhSSZWE3SRNgcOl-5" value="事件物消息处理" style="rounded=0;whiteSpace=wrap;html=1;" vertex="1" parent="1">
          <mxGeometry x="510" y="100" width="100" height="30" as="geometry" />
        </mxCell>
        <mxCell id="43CxiuhSSZWE3SRNgcOl-6" value="属性物消息处理" style="rounded=0;whiteSpace=wrap;html=1;" vertex="1" parent="1">
          <mxGeometry x="363.5" y="100" width="100" height="30" as="geometry" />
        </mxCell>
        <mxCell id="43CxiuhSSZWE3SRNgcOl-7" value="指令物消息处理" style="rounded=0;whiteSpace=wrap;html=1;" vertex="1" parent="1">
          <mxGeometry x="220" y="100" width="100" height="30" as="geometry" />
        </mxCell>
        <mxCell id="43CxiuhSSZWE3SRNgcOl-8" value="非物模型处理&lt;br&gt;（自定义）" style="rounded=0;whiteSpace=wrap;html=1;" vertex="1" parent="1">
          <mxGeometry x="80" y="220" width="100" height="30" as="geometry" />
        </mxCell>
        <mxCell id="43CxiuhSSZWE3SRNgcOl-9" value="" style="edgeStyle=orthogonalEdgeStyle;rounded=0;orthogonalLoop=1;jettySize=auto;html=1;endArrow=none;endFill=0;" edge="1" parent="1" source="43CxiuhSSZWE3SRNgcOl-10" target="43CxiuhSSZWE3SRNgcOl-33">
          <mxGeometry relative="1" as="geometry" />
        </mxCell>
        <mxCell id="43CxiuhSSZWE3SRNgcOl-10" value="上行消息" style="shape=process;whiteSpace=wrap;html=1;backgroundOutline=1;" vertex="1" parent="1">
          <mxGeometry x="10" y="840" width="120" height="60" as="geometry" />
        </mxCell>
        <mxCell id="43CxiuhSSZWE3SRNgcOl-11" style="edgeStyle=orthogonalEdgeStyle;rounded=0;orthogonalLoop=1;jettySize=auto;html=1;exitX=0;exitY=0.5;exitDx=0;exitDy=0;endArrow=none;endFill=0;" edge="1" parent="1" source="43CxiuhSSZWE3SRNgcOl-12">
          <mxGeometry relative="1" as="geometry">
            <mxPoint x="470" y="560" as="targetPoint" />
          </mxGeometry>
        </mxCell>
        <mxCell id="43CxiuhSSZWE3SRNgcOl-12" value="物模型指令处理" style="shape=process;whiteSpace=wrap;html=1;backgroundOutline=1;" vertex="1" parent="1">
          <mxGeometry x="490" y="610" width="120" height="60" as="geometry" />
        </mxCell>
        <mxCell id="43CxiuhSSZWE3SRNgcOl-13" value="自定义透传" style="shape=process;whiteSpace=wrap;html=1;backgroundOutline=1;" vertex="1" parent="1">
          <mxGeometry x="490" y="840" width="120" height="60" as="geometry" />
        </mxCell>
        <mxCell id="43CxiuhSSZWE3SRNgcOl-14" style="edgeStyle=orthogonalEdgeStyle;rounded=0;orthogonalLoop=1;jettySize=auto;html=1;exitX=0;exitY=0.5;exitDx=0;exitDy=0;endArrow=none;endFill=0;" edge="1" parent="1" source="43CxiuhSSZWE3SRNgcOl-15">
          <mxGeometry relative="1" as="geometry">
            <mxPoint x="470" y="870" as="targetPoint" />
          </mxGeometry>
        </mxCell>
        <mxCell id="43CxiuhSSZWE3SRNgcOl-15" value="JavaScript脚本解析" style="shape=process;whiteSpace=wrap;html=1;backgroundOutline=1;" vertex="1" parent="1">
          <mxGeometry x="490" y="930" width="120" height="60" as="geometry" />
        </mxCell>
        <mxCell id="43CxiuhSSZWE3SRNgcOl-16" value="事件告警处理" style="shape=process;whiteSpace=wrap;html=1;backgroundOutline=1;" vertex="1" parent="1">
          <mxGeometry x="660" y="530" width="120" height="60" as="geometry" />
        </mxCell>
        <mxCell id="43CxiuhSSZWE3SRNgcOl-17" style="edgeStyle=orthogonalEdgeStyle;rounded=0;orthogonalLoop=1;jettySize=auto;html=1;exitX=0;exitY=0.5;exitDx=0;exitDy=0;endArrow=none;endFill=0;" edge="1" parent="1" source="43CxiuhSSZWE3SRNgcOl-19">
          <mxGeometry relative="1" as="geometry">
            <mxPoint x="470" y="870" as="targetPoint" />
          </mxGeometry>
        </mxCell>
        <mxCell id="43CxiuhSSZWE3SRNgcOl-18" style="edgeStyle=orthogonalEdgeStyle;rounded=0;orthogonalLoop=1;jettySize=auto;html=1;exitX=1;exitY=0.5;exitDx=0;exitDy=0;entryX=0;entryY=0.5;entryDx=0;entryDy=0;endArrow=none;endFill=0;" edge="1" parent="1" source="43CxiuhSSZWE3SRNgcOl-19" target="43CxiuhSSZWE3SRNgcOl-20">
          <mxGeometry relative="1" as="geometry" />
        </mxCell>
        <mxCell id="43CxiuhSSZWE3SRNgcOl-19" value="设备状态处理" style="shape=process;whiteSpace=wrap;html=1;backgroundOutline=1;" vertex="1" parent="1">
          <mxGeometry x="490" y="760" width="120" height="60" as="geometry" />
        </mxCell>
        <mxCell id="43CxiuhSSZWE3SRNgcOl-20" value="设备状态告警处理" style="shape=process;whiteSpace=wrap;html=1;backgroundOutline=1;" vertex="1" parent="1">
          <mxGeometry x="660" y="760" width="120" height="60" as="geometry" />
        </mxCell>
        <mxCell id="43CxiuhSSZWE3SRNgcOl-21" value="" style="edgeStyle=orthogonalEdgeStyle;rounded=0;orthogonalLoop=1;jettySize=auto;html=1;endArrow=none;endFill=0;" edge="1" parent="1" source="43CxiuhSSZWE3SRNgcOl-22" target="43CxiuhSSZWE3SRNgcOl-13">
          <mxGeometry relative="1" as="geometry" />
        </mxCell>
        <mxCell id="43CxiuhSSZWE3SRNgcOl-22" value="非物模型处理" style="shape=process;whiteSpace=wrap;html=1;backgroundOutline=1;" vertex="1" parent="1">
          <mxGeometry x="330" y="840" width="120" height="60" as="geometry" />
        </mxCell>
        <mxCell id="43CxiuhSSZWE3SRNgcOl-23" value="" style="edgeStyle=orthogonalEdgeStyle;rounded=0;orthogonalLoop=1;jettySize=auto;html=1;endArrow=none;endFill=0;" edge="1" parent="1" source="43CxiuhSSZWE3SRNgcOl-25" target="43CxiuhSSZWE3SRNgcOl-31">
          <mxGeometry relative="1" as="geometry" />
        </mxCell>
        <mxCell id="43CxiuhSSZWE3SRNgcOl-24" style="edgeStyle=orthogonalEdgeStyle;rounded=0;orthogonalLoop=1;jettySize=auto;html=1;exitX=0;exitY=0.5;exitDx=0;exitDy=0;entryX=1;entryY=0.5;entryDx=0;entryDy=0;endArrow=none;endFill=0;" edge="1" parent="1" source="43CxiuhSSZWE3SRNgcOl-25" target="43CxiuhSSZWE3SRNgcOl-33">
          <mxGeometry relative="1" as="geometry" />
        </mxCell>
        <mxCell id="43CxiuhSSZWE3SRNgcOl-25" value="物模型处理" style="shape=process;whiteSpace=wrap;html=1;backgroundOutline=1;" vertex="1" parent="1">
          <mxGeometry x="330" y="530" width="120" height="60" as="geometry" />
        </mxCell>
        <mxCell id="43CxiuhSSZWE3SRNgcOl-26" style="edgeStyle=orthogonalEdgeStyle;rounded=0;orthogonalLoop=1;jettySize=auto;html=1;exitX=0;exitY=0.5;exitDx=0;exitDy=0;entryX=1;entryY=0.5;entryDx=0;entryDy=0;endArrow=none;endFill=0;" edge="1" parent="1" source="43CxiuhSSZWE3SRNgcOl-28" target="43CxiuhSSZWE3SRNgcOl-25">
          <mxGeometry relative="1" as="geometry" />
        </mxCell>
        <mxCell id="43CxiuhSSZWE3SRNgcOl-27" value="" style="edgeStyle=orthogonalEdgeStyle;rounded=0;orthogonalLoop=1;jettySize=auto;html=1;endArrow=none;endFill=0;" edge="1" parent="1" source="43CxiuhSSZWE3SRNgcOl-28" target="43CxiuhSSZWE3SRNgcOl-29">
          <mxGeometry relative="1" as="geometry" />
        </mxCell>
        <mxCell id="43CxiuhSSZWE3SRNgcOl-28" value="物模型属性处理" style="shape=process;whiteSpace=wrap;html=1;backgroundOutline=1;" vertex="1" parent="1">
          <mxGeometry x="490" y="450" width="120" height="60" as="geometry" />
        </mxCell>
        <mxCell id="43CxiuhSSZWE3SRNgcOl-29" value="属性告警处理" style="shape=process;whiteSpace=wrap;html=1;backgroundOutline=1;" vertex="1" parent="1">
          <mxGeometry x="660" y="450" width="120" height="60" as="geometry" />
        </mxCell>
        <mxCell id="43CxiuhSSZWE3SRNgcOl-30" value="" style="edgeStyle=orthogonalEdgeStyle;rounded=0;orthogonalLoop=1;jettySize=auto;html=1;endArrow=none;endFill=0;" edge="1" parent="1" source="43CxiuhSSZWE3SRNgcOl-31" target="43CxiuhSSZWE3SRNgcOl-16">
          <mxGeometry relative="1" as="geometry" />
        </mxCell>
        <mxCell id="43CxiuhSSZWE3SRNgcOl-31" value="物模型事件处理" style="shape=process;whiteSpace=wrap;html=1;backgroundOutline=1;" vertex="1" parent="1">
          <mxGeometry x="490" y="530" width="120" height="60" as="geometry" />
        </mxCell>
        <mxCell id="43CxiuhSSZWE3SRNgcOl-32" value="" style="edgeStyle=orthogonalEdgeStyle;rounded=0;orthogonalLoop=1;jettySize=auto;html=1;endArrow=none;endFill=0;" edge="1" parent="1" source="43CxiuhSSZWE3SRNgcOl-33" target="43CxiuhSSZWE3SRNgcOl-22">
          <mxGeometry relative="1" as="geometry" />
        </mxCell>
        <mxCell id="43CxiuhSSZWE3SRNgcOl-33" value="消息解析" style="shape=process;whiteSpace=wrap;html=1;backgroundOutline=1;" vertex="1" parent="1">
          <mxGeometry x="170" y="840" width="120" height="60" as="geometry" />
        </mxCell>
        <mxCell id="43CxiuhSSZWE3SRNgcOl-36" value="设备状态处理" style="rounded=0;whiteSpace=wrap;html=1;" vertex="1" parent="1">
          <mxGeometry x="220" y="220" width="100" height="30" as="geometry" />
        </mxCell>
        <mxCell id="43CxiuhSSZWE3SRNgcOl-37" value="自定义透传" style="rounded=0;whiteSpace=wrap;html=1;" vertex="1" parent="1">
          <mxGeometry x="364" y="220" width="100" height="30" as="geometry" />
        </mxCell>
        <mxCell id="43CxiuhSSZWE3SRNgcOl-38" value="js脚本解析" style="rounded=0;whiteSpace=wrap;html=1;" vertex="1" parent="1">
          <mxGeometry x="510" y="220" width="100" height="30" as="geometry" />
        </mxCell>
        <mxCell id="43CxiuhSSZWE3SRNgcOl-39" value="设备在线" style="rounded=0;whiteSpace=wrap;html=1;" vertex="1" parent="1">
          <mxGeometry x="220" y="290" width="100" height="30" as="geometry" />
        </mxCell>
        <mxCell id="43CxiuhSSZWE3SRNgcOl-40" value="设备离线" style="rounded=0;whiteSpace=wrap;html=1;" vertex="1" parent="1">
          <mxGeometry x="363.5" y="290" width="100" height="30" as="geometry" />
        </mxCell>
        <mxCell id="43CxiuhSSZWE3SRNgcOl-41" value="消息已发送" style="rounded=0;whiteSpace=wrap;html=1;" vertex="1" parent="1">
          <mxGeometry x="510" y="290" width="100" height="30" as="geometry" />
        </mxCell>
        <mxCell id="43CxiuhSSZWE3SRNgcOl-42" value="消息已到达" style="rounded=0;whiteSpace=wrap;html=1;" vertex="1" parent="1">
          <mxGeometry x="220" y="340" width="100" height="30" as="geometry" />
        </mxCell>
        <mxCell id="43CxiuhSSZWE3SRNgcOl-43" value="属性告警解析" style="rounded=0;whiteSpace=wrap;html=1;" vertex="1" parent="1">
          <mxGeometry x="360" y="160" width="100" height="30" as="geometry" />
        </mxCell>
        <mxCell id="43CxiuhSSZWE3SRNgcOl-44" value="事件告警解析" style="rounded=0;whiteSpace=wrap;html=1;" vertex="1" parent="1">
          <mxGeometry x="214" y="160" width="100" height="30" as="geometry" />
        </mxCell>
        <mxCell id="43CxiuhSSZWE3SRNgcOl-46" value="导入物模型" style="rounded=0;whiteSpace=wrap;html=1;" vertex="1" parent="1">
          <mxGeometry x="220" y="40" width="100" height="30" as="geometry" />
        </mxCell>
        <mxCell id="43CxiuhSSZWE3SRNgcOl-47" value="导出物模型" style="rounded=0;whiteSpace=wrap;html=1;" vertex="1" parent="1">
          <mxGeometry x="364" y="40" width="100" height="30" as="geometry" />
        </mxCell>
        <mxCell id="43CxiuhSSZWE3SRNgcOl-48" value="物模型属性查询" style="rounded=0;whiteSpace=wrap;html=1;" vertex="1" parent="1">
          <mxGeometry x="510" y="40" width="100" height="30" as="geometry" />
        </mxCell>
        <mxCell id="43CxiuhSSZWE3SRNgcOl-66" value="告警处理" style="rounded=0;whiteSpace=wrap;html=1;" vertex="1" parent="1">
          <mxGeometry x="80" y="160" width="100" height="30" as="geometry" />
        </mxCell>
      </root>
    </mxGraphModel>
  </diagram>
</mxfile>
